<?xml version="1.0" encoding="UTF-8"?>
<svg xmlns="http://www.w3.org/2000/svg" xmlns:xlink="http://www.w3.org/1999/xlink" version="1.1" id="Layer_1" x="0px" y="0px" width="100%" viewBox="0 0 643 438" enable-background="new 0 0 643 438" xml:space="preserve" style="background: transparent;">
<path fill="none" opacity="1.000000" stroke="none" d=" M422.000000,439.000000   C281.365753,439.000000 141.231476,439.000000 1.048611,439.000000   C1.048611,293.066193 1.048611,147.132339 1.048611,1.099245   C215.217575,1.099245 429.435211,1.099245 643.826416,1.099245   C643.826416,146.999832 643.826416,292.999908 643.826416,439.000000   C570.132385,439.000000 496.316193,439.000000 422.000000,439.000000  M222.270920,244.289932   C222.251450,242.187668 222.231979,240.085403 222.517319,237.096970   C222.518433,231.352219 222.519562,225.607468 223.453033,219.469650   C286.444763,219.469650 349.436493,219.469650 412.428223,219.469650   C412.667542,219.032730 412.906860,218.595810 413.146179,218.158890   C406.038513,210.144653 399.254089,201.812164 391.749115,194.189117   C379.825989,182.078476 367.479584,170.380600 355.150299,158.678757   C353.557922,157.167404 351.010071,155.856369 348.889740,155.833221   C328.925110,155.615173 308.956085,155.600311 288.991699,155.823578   C286.665070,155.849594 283.852997,157.131577 282.125336,158.749146   C271.511200,168.687073 261.063293,178.807022 250.718231,189.026505   C240.708069,198.915161 230.888443,208.996704 220.356323,219.222733   C219.290970,220.275055 218.210541,221.312592 217.162491,222.381882   C198.126282,241.803909 179.060089,261.196930 160.133316,280.725067   C158.802200,282.098450 157.846802,284.470490 157.831573,286.387024   C157.670197,306.680603 157.696289,326.976166 157.810898,347.270386   C157.820145,348.906097 158.407928,350.983643 159.499542,352.101044   C174.689682,367.649933 189.976578,383.105164 205.328979,398.494324   C210.284103,403.461365 215.497894,408.170349 221.588181,413.939789   C221.588181,410.758270 221.588181,409.002625 221.588181,407.247009   C221.588226,359.134766 221.576584,311.022491 221.603104,262.910248   C221.606400,256.931580 221.812134,250.953049 222.270920,244.289932  M422.226624,33.291470   C422.226624,29.182064 422.226624,25.072659 422.226624,19.955448   C419.911469,21.199909 418.169739,21.756046 416.929626,22.870422   C412.256348,27.069883 407.667297,31.370775 403.189972,35.779163   C390.056305,48.710510 376.915497,61.636505 363.946991,74.732452   C360.190796,78.525528 357.242432,83.016747 357.499817,88.770691   C357.707611,93.416031 358.254181,98.053261 358.299072,102.697487   C358.418243,115.017601 358.133179,127.345177 358.456970,139.658005   C358.586731,144.591873 358.728058,149.613464 363.162750,153.595306   C369.240265,159.052200 374.568146,165.334229 380.375793,171.103088   C414.821991,205.319244 449.298737,239.504776 483.846588,273.618164   C485.230377,274.984528 487.416229,276.279388 489.259827,276.324554   C507.559418,276.773102 525.865051,277.013245 544.170227,277.171417   C550.509705,277.226227 556.010071,275.450439 560.299133,270.115112   C563.690857,265.895966 567.993530,262.413879 571.850830,258.563538   C586.044189,244.395630 600.235962,230.226105 614.367615,215.996887   C615.291687,215.066422 615.705322,213.629028 616.797607,211.613113   C613.158264,211.613113 610.533081,211.596512 607.908081,211.615601   C562.763306,211.943665 517.618958,212.381409 472.473602,212.546661   C457.988617,212.599686 443.501801,211.895477 429.014099,211.630753   C425.847931,211.572906 424.183899,210.707520 424.140472,207.074265   C424.021210,197.094360 423.302979,187.119431 423.270172,177.141068   C423.154053,141.821945 423.309174,106.501900 423.179626,71.182869   C423.134430,58.868244 422.561523,46.555553 422.226624,33.291470  M63.163311,256.338959   C67.032776,260.203888 70.627815,264.406433 74.849556,267.837952   C78.999008,271.210663 81.593422,276.778534 88.383209,276.677307   C108.500229,276.377319 128.623917,276.536255 148.742279,276.291870   C150.421005,276.271515 152.387924,274.886414 153.701172,273.603394   C176.318802,251.505844 199.120819,229.587173 221.326050,207.080383   C239.788132,188.367599 257.580322,168.990952 275.497894,149.748810   C277.119995,148.006805 278.278961,145.108749 278.312653,142.728561   C278.555206,125.604515 278.709015,108.469101 278.279022,91.352669   C278.169495,86.993149 277.106171,81.535995 274.349518,78.552963   C260.169403,63.208309 245.352997,48.447659 230.629028,33.611851   C225.830368,28.776718 220.640182,24.330166 215.629059,19.705891   C215.094162,19.850483 214.559280,19.995075 214.024384,20.139668   C214.024384,32.208988 214.051010,44.278381 214.019714,56.347622   C213.891037,105.976875 213.692505,155.606079 213.690720,205.235306   C213.690552,209.886765 212.440750,211.670380 207.552856,211.697205   C183.739349,211.827911 159.928268,212.466980 136.114960,212.555176   C109.798531,212.652603 83.480675,212.329590 57.163296,212.225433   C45.251511,212.178284 33.339382,212.217438 21.427408,212.217438   C21.247564,212.713593 21.067720,213.209732 20.887877,213.705887   C34.807640,227.755127 48.727402,241.804367 63.163311,256.338959  M596.499390,421.021484   C602.906433,421.021484 609.313477,421.021484 615.720520,421.021484   C610.853638,414.198334 605.640503,408.517426 600.209534,403.052979   C586.001648,388.757538 571.730164,374.524750 557.383484,360.368896   C555.986694,358.990692 553.915955,357.499847 552.117554,357.447205   C533.684753,356.907745 515.237305,356.216614 496.807159,356.483704   C485.458099,356.648193 476.138580,362.000305 468.490295,370.671783   C460.245514,380.019592 451.596405,389.044922 442.674103,397.750214   C435.515228,404.734955 427.831512,411.153595 423.121460,421.030304   C481.004181,421.030304 538.251953,421.030304 596.499390,421.021484  M458.769318,261.760345   C445.630035,247.858780 432.610962,233.825562 415.864746,221.973755   C415.864746,285.650818 415.864746,348.128021 415.864746,412.189484   C419.867462,409.407074 423.292572,407.708130 425.845367,405.141541   C442.982880,387.911224 459.946838,370.507996 476.916382,353.111420   C477.890747,352.112549 478.917480,350.738007 479.068634,349.439209   C479.625000,344.658844 480.147705,339.833191 480.096405,335.030884   C479.917175,318.251343 479.516937,301.473907 479.112183,284.697784   C479.082947,283.486816 478.678894,281.968781 477.880707,281.142670   C471.743011,274.789917 465.464752,268.572998 458.769318,261.760345  M43.530514,395.040863   C39.511467,399.156036 35.587200,403.369598 31.446316,407.358307   C27.410341,411.245972 22.112591,414.115295 20.751511,420.667480   C85.356117,420.667480 149.218765,420.667480 213.081406,420.667480   C213.460754,420.106903 213.840103,419.546326 214.219452,418.985748   C209.527084,414.714996 204.681641,410.599274 200.170456,406.145020   C185.530838,391.690094 171.028839,377.095886 156.439255,362.590088   C152.556808,358.729919 148.235611,356.996521 142.318771,357.106171   C126.530334,357.398773 110.722206,356.391022 94.922760,356.417206   C85.510239,356.432831 77.252335,359.971405 70.609222,366.948639   C61.804043,376.196655 52.887505,385.338623 43.530514,395.040863  M22.499146,227.873032   C19.790453,226.104233 17.081762,224.335434 13.489430,221.989609   C11.422017,286.169617 14.785085,349.487244 11.488228,413.554596   C18.952744,407.346222 26.310251,402.018036 32.725170,395.728424   C46.512112,382.210876 59.842228,368.225861 73.271820,354.347534   C74.715172,352.855957 76.422646,350.873444 76.573578,349.002930   C77.359772,339.259735 77.858330,329.483673 78.109985,319.710083   C78.315399,311.732391 77.240601,303.645721 78.196617,295.785339   C79.094528,288.402710 76.842972,282.729034 72.272133,277.636932   C68.737648,273.699371 64.676659,270.239014 60.927010,266.489227   C48.256680,253.818481 35.620770,241.113297 22.499146,227.873032  M588.397156,252.764175   C581.554871,259.660858 573.998474,265.998627 568.051697,273.596283   C560.683960,283.009521 555.844238,293.740234 559.787109,306.368713   C560.218811,307.751282 560.114929,309.339905 560.067749,310.826874   C559.782471,319.804718 559.101257,328.785492 559.225464,337.755981   C559.326782,345.080048 560.536377,352.325287 566.218018,357.863373   C577.094604,368.465179 587.959717,379.078705 598.829102,389.687897   C606.904236,397.569733 614.978455,405.452484 623.931030,414.191864   C623.931030,348.405273 623.931030,284.217133 623.931030,218.717377   C609.436035,228.137344 601.680481,242.896255 588.397156,252.764175  M278.169952,68.382568   C280.908264,70.521332 283.472137,74.218681 286.412964,74.547775   C306.614319,76.808464 326.872620,77.107765 347.178375,75.108406   C351.588593,74.674164 354.347504,73.038681 357.266357,70.154076   C370.480560,57.094971 384.058899,44.400234 397.123901,31.196117   C402.799194,25.460453 407.553833,18.813843 413.653534,11.464105   C348.931946,11.464105 285.865540,11.464105 221.503494,11.464105   C223.136169,13.851693 223.881699,15.439631 225.059937,16.580782   C230.869354,22.207302 236.874893,27.632042 242.659988,33.282833   C254.393295,44.743740 266.029236,56.304375 278.169952,68.382568  z"/>
<path fill="#fff" opacity="1.000000" stroke="none" d=" M422.228088,33.766724   C422.561523,46.555553 423.134430,58.868244 423.179626,71.182869   C423.309174,106.501900 423.154053,141.821945 423.270172,177.141068   C423.302979,187.119431 424.021210,197.094360 424.140472,207.074265   C424.183899,210.707520 425.847931,211.572906 429.014099,211.630753   C443.501801,211.895477 457.988617,212.599686 472.473602,212.546661   C517.618958,212.381409 562.763306,211.943665 607.908081,211.615601   C610.533081,211.596512 613.158264,211.613113 616.797607,211.613113   C615.705322,213.629028 615.291687,215.066422 614.367615,215.996887   C600.235962,230.226105 586.044189,244.395630 571.850830,258.563538   C567.993530,262.413879 563.690857,265.895966 560.299133,270.115112   C556.010071,275.450439 550.509705,277.226227 544.170227,277.171417   C525.865051,277.013245 507.559418,276.773102 489.259827,276.324554   C487.416229,276.279388 485.230377,274.984528 483.846588,273.618164   C449.298737,239.504776 414.821991,205.319244 380.375793,171.103088   C374.568146,165.334229 369.240265,159.052200 363.162750,153.595306   C358.728058,149.613464 358.586731,144.591873 358.456970,139.658005   C358.133179,127.345177 358.418243,115.017601 358.299072,102.697487   C358.254181,98.053261 357.707611,93.416031 357.499817,88.770691   C357.242432,83.016747 360.190796,78.525528 363.946991,74.732452   C376.915497,61.636505 390.056305,48.710510 403.189972,35.779163   C407.667297,31.370775 412.256348,27.069883 416.929626,22.870422   C418.169739,21.756046 419.911469,21.199909 422.226624,19.955448   C422.226624,25.072659 422.226624,29.182064 422.228088,33.766724  z"/>
<path fill="#fff" opacity="1.000000" stroke="none" d=" M62.905235,256.096283   C48.727402,241.804367 34.807640,227.755127 20.887877,213.705887   C21.067720,213.209732 21.247564,212.713593 21.427408,212.217438   C33.339382,212.217438 45.251511,212.178284 57.163296,212.225433   C83.480675,212.329590 109.798531,212.652603 136.114960,212.555176   C159.928268,212.466980 183.739349,211.827911 207.552856,211.697205   C212.440750,211.670380 213.690552,209.886765 213.690720,205.235306   C213.692505,155.606079 213.891037,105.976875 214.019714,56.347622   C214.051010,44.278381 214.024384,32.208988 214.024384,20.139668   C214.559280,19.995075 215.094162,19.850483 215.629059,19.705891   C220.640182,24.330166 225.830368,28.776718 230.629028,33.611851   C245.352997,48.447659 260.169403,63.208309 274.349518,78.552963   C277.106171,81.535995 278.169495,86.993149 278.279022,91.352669   C278.709015,108.469101 278.555206,125.604515 278.312653,142.728561   C278.278961,145.108749 277.119995,148.006805 275.497894,149.748810   C257.580322,168.990952 239.788132,188.367599 221.326050,207.080383   C199.120819,229.587173 176.318802,251.505844 153.701172,273.603394   C152.387924,274.886414 150.421005,276.271515 148.742279,276.291870   C128.623917,276.536255 108.500229,276.377319 88.383209,276.677307   C81.593422,276.778534 78.999008,271.210663 74.849556,267.837952   C70.627815,264.406433 67.032776,260.203888 62.905235,256.096283  z"/>
<path fill="#fff" opacity="1.000000" stroke="none" d=" M595.999573,421.025879   C538.251953,421.030304 481.004181,421.030304 423.121460,421.030304   C427.831512,411.153595 435.515228,404.734955 442.674103,397.750214   C451.596405,389.044922 460.245514,380.019592 468.490295,370.671783   C476.138580,362.000305 485.458099,356.648193 496.807159,356.483704   C515.237305,356.216614 533.684753,356.907745 552.117554,357.447205   C553.915955,357.499847 555.986694,358.990692 557.383484,360.368896   C571.730164,374.524750 586.001648,388.757538 600.209534,403.052979   C605.640503,408.517426 610.853638,414.198334 615.720520,421.021484   C609.313477,421.021484 602.906433,421.021484 595.999573,421.025879  z"/>
<path fill="#fff" opacity="1.000000" stroke="none" d=" M458.999695,262.037109   C465.464752,268.572998 471.743011,274.789917 477.880707,281.142670   C478.678894,281.968781 479.082947,283.486816 479.112183,284.697784   C479.516937,301.473907 479.917175,318.251343 480.096405,335.030884   C480.147705,339.833191 479.625000,344.658844 479.068634,349.439209   C478.917480,350.738007 477.890747,352.112549 476.916382,353.111420   C459.946838,370.507996 442.982880,387.911224 425.845367,405.141541   C423.292572,407.708130 419.867462,409.407074 415.864746,412.189484   C415.864746,348.128021 415.864746,285.650818 415.864746,221.973755   C432.610962,233.825562 445.630035,247.858780 458.999695,262.037109  z"/>
<path fill="#fff" opacity="1.000000" stroke="none" d=" M43.774666,394.783508   C52.887505,385.338623 61.804043,376.196655 70.609222,366.948639   C77.252335,359.971405 85.510239,356.432831 94.922760,356.417206   C110.722206,356.391022 126.530334,357.398773 142.318771,357.106171   C148.235611,356.996521 152.556808,358.729919 156.439255,362.590088   C171.028839,377.095886 185.530838,391.690094 200.170456,406.145020   C204.681641,410.599274 209.527084,414.714996 214.219452,418.985748   C213.840103,419.546326 213.460754,420.106903 213.081406,420.667480   C149.218765,420.667480 85.356117,420.667480 20.751511,420.667480   C22.112591,414.115295 27.410341,411.245972 31.446316,407.358307   C35.587200,403.369598 39.511467,399.156036 43.774666,394.783508  z"/>
<path fill="#fff" opacity="1.000000" stroke="none" d=" M222.520691,219.862732   C222.519562,225.607468 222.518433,231.352219 222.075333,237.713104   C221.730255,240.544327 221.827164,242.759384 221.924057,244.974457   C221.812134,250.953049 221.606400,256.931580 221.603104,262.910248   C221.576584,311.022491 221.588226,359.134766 221.588181,407.247009   C221.588181,409.002625 221.588181,410.758270 221.588181,413.939789   C215.497894,408.170349 210.284103,403.461365 205.328979,398.494324   C189.976578,383.105164 174.689682,367.649933 159.499542,352.101044   C158.407928,350.983643 157.820145,348.906097 157.810898,347.270386   C157.696289,326.976166 157.670197,306.680603 157.831573,286.387024   C157.846802,284.470490 158.802200,282.098450 160.133316,280.725067   C179.060089,261.196930 198.126282,241.803909 217.162491,222.381882   C218.210541,221.312592 219.290970,220.275055 220.876160,219.190445   C221.770874,219.393005 222.145782,219.627869 222.520691,219.862732  z"/>
<path fill="#fff" opacity="1.000000" stroke="none" d=" M222.986862,219.666199   C222.145782,219.627869 221.770874,219.393005 221.190552,219.075836   C230.888443,208.996704 240.708069,198.915161 250.718231,189.026505   C261.063293,178.807022 271.511200,168.687073 282.125336,158.749146   C283.852997,157.131577 286.665070,155.849594 288.991699,155.823578   C308.956085,155.600311 328.925110,155.615173 348.889740,155.833221   C351.010071,155.856369 353.557922,157.167404 355.150299,158.678757   C367.479584,170.380600 379.825989,182.078476 391.749115,194.189117   C399.254089,201.812164 406.038513,210.144653 413.146179,218.158890   C412.906860,218.595810 412.667542,219.032730 412.428223,219.469650   C349.436493,219.469650 286.444763,219.469650 222.986862,219.666199  z"/>
<path fill="#fff" opacity="1.000000" stroke="none" d=" M22.735428,228.147156   C35.620770,241.113297 48.256680,253.818481 60.927010,266.489227   C64.676659,270.239014 68.737648,273.699371 72.272133,277.636932   C76.842972,282.729034 79.094528,288.402710 78.196617,295.785339   C77.240601,303.645721 78.315399,311.732391 78.109985,319.710083   C77.858330,329.483673 77.359772,339.259735 76.573578,349.002930   C76.422646,350.873444 74.715172,352.855957 73.271820,354.347534   C59.842228,368.225861 46.512112,382.210876 32.725170,395.728424   C26.310251,402.018036 18.952744,407.346222 11.488228,413.554596   C14.785085,349.487244 11.422017,286.169617 13.489430,221.989609   C17.081762,224.335434 19.790453,226.104233 22.735428,228.147156  z"/>
<path fill="#fff" opacity="1.000000" stroke="none" d=" M588.736816,252.643341   C601.680481,242.896255 609.436035,228.137344 623.931030,218.717377   C623.931030,284.217133 623.931030,348.405273 623.931030,414.191864   C614.978455,405.452484 606.904236,397.569733 598.829102,389.687897   C587.959717,379.078705 577.094604,368.465179 566.218018,357.863373   C560.536377,352.325287 559.326782,345.080048 559.225464,337.755981   C559.101257,328.785492 559.782471,319.804718 560.067749,310.826874   C560.114929,309.339905 560.218811,307.751282 559.787109,306.368713   C555.844238,293.740234 560.683960,283.009521 568.051697,273.596283   C573.998474,265.998627 581.554871,259.660858 588.736816,252.643341  z"/>
<path fill="#fff" opacity="1.000000" stroke="none" d=" M277.937622,68.103241   C266.029236,56.304375 254.393295,44.743740 242.659988,33.282833   C236.874893,27.632042 230.869354,22.207302 225.059937,16.580782   C223.881699,15.439631 223.136169,13.851693 221.503494,11.464105   C285.865540,11.464105 348.931946,11.464105 413.653534,11.464105   C407.553833,18.813843 402.799194,25.460453 397.123901,31.196117   C384.058899,44.400234 370.480560,57.094971 357.266357,70.154076   C354.347504,73.038681 351.588593,74.674164 347.178375,75.108406   C326.872620,77.107765 306.614319,76.808464 286.412964,74.547775   C283.472137,74.218681 280.908264,70.521332 277.937622,68.103241  z"/>
<path fill="#fff" opacity="1.000000" stroke="none" d=" M222.097488,244.632202   C221.827164,242.759384 221.730255,240.544327 221.922943,238.156189   C222.231979,240.085403 222.251450,242.187668 222.097488,244.632202  z"/>
</svg>